<svg width="573" height="159" viewBox="0 0 573 100" fill="none" xmlns="http://www.w3.org/2000/svg">
<g id="SvgjsG1572" featurekey="symbolContainer" transform="matrix(1,0,0,1,0,0)" fill="#ff9999"><rect xmlns="http://www.w3.org/2000/svg" width="110" height="98" rx="10" ry="10"></rect></g>
<g id="SvgjsG1573" featurekey="uHI19F-0" transform="matrix(0.7777734921538467,0,0,0.7777734921538467,16.110938202668663,6.50252022944006)" fill="#ffffff"><path xmlns="http://www.w3.org/2000/svg" d="M21.768,35.732c-0.977-0.977-2.559-0.977-3.535,0l-12.5,12.5c-0.977,0.976-0.977,2.559,0,3.535l12.5,12.5  C18.721,64.756,19.36,65,20,65s1.279-0.244,1.768-0.732c0.977-0.977,0.977-2.559,0-3.535L11.035,50l10.732-10.732  C22.744,38.292,22.744,36.708,21.768,35.732z"></path><path xmlns="http://www.w3.org/2000/svg" d="M81.768,35.732c-0.977-0.977-2.559-0.977-3.535,0c-0.977,0.976-0.977,2.559,0,3.535L88.965,50L78.232,60.732  c-0.977,0.977-0.977,2.559,0,3.535C78.721,64.756,79.36,65,80,65s1.279-0.244,1.768-0.732l12.5-12.5  c0.977-0.976,0.977-2.559,0-3.535L81.768,35.732z"></path><path xmlns="http://www.w3.org/2000/svg" d="M65.604,19.442l-4.699-1.71c-0.689-0.251-1.409-0.378-2.138-0.378c-2.617,0-4.978,1.653-5.873,4.113l-1.709,4.696  c0,0.001-0.001,0.002-0.002,0.003s0,0.002,0,0.003l-17.1,46.982c-0.052,0.143-0.069,0.293-0.067,0.444c0,0.025-0.002,0.05,0,0.075  c0.001,0.017-0.002,0.034,0,0.051l1.917,16.66c0.055,0.471,0.37,0.87,0.814,1.032c0.14,0.051,0.284,0.075,0.428,0.075  c0.314,0,0.623-0.119,0.859-0.342l12.179-11.53c0.029-0.027,0.05-0.061,0.076-0.091c0.024-0.028,0.049-0.054,0.071-0.084  c0.069-0.094,0.129-0.195,0.169-0.305l17.1-46.983c0,0,0-0.001,0.001-0.001c0,0,0-0.001,0-0.001l1.71-4.698  c0.57-1.569,0.497-3.266-0.208-4.779C68.424,21.161,67.172,20.013,65.604,19.442z M55.243,22.322  c0.537-1.477,1.953-2.469,3.523-2.469c0.437,0,0.868,0.077,1.282,0.228l4.699,1.71c0.941,0.342,1.692,1.031,2.115,1.938  c0.424,0.908,0.468,1.926,0.125,2.867l-1.283,3.524l-8.22-2.992c-0.001,0-0.001-0.001-0.002-0.001s-0.001,0-0.002,0l-3.522-1.282  L55.243,22.322z M48.606,77.106l-2.35-0.855l16.246-44.634l2.348,0.855L48.606,77.106z M41.558,74.541l16.246-44.635l2.349,0.855  L43.906,75.395L41.558,74.541z M36.859,72.831l16.246-44.635l2.349,0.855L39.208,73.686L36.859,72.831z M36.73,75.445l2.797,1.018  c0,0,0,0,0,0s0,0,0.001,0l4.697,1.709c0,0,0.001,0,0.001,0.001c0,0,0.001,0,0.001,0l2.797,1.018l-8.894,8.42L36.73,75.445z"></path></g>
<g id="SvgjsG1574" featurekey="8FbbNb-0" transform="matrix(4.004576326946589,0,0,4.004576326946589,127.7574403503498,-11.581233622363552)" fill="#444f5a"><path d="M4.56 10.28 c0.72 0 1.3633 0.13338 1.93 0.40004 s1.0033 0.65332 1.31 1.16 l-1.4 1.06 c-0.53334 -0.62666 -1.18 -0.94 -1.94 -0.94 c-0.45334 0 -0.83 0.1 -1.13 0.3 s-0.45 0.45334 -0.45 0.76 c0 0.66666 0.62 1.12 1.86 1.36 c1.2133 0.22666 2.07 0.56 2.57 1 s0.75 1.0667 0.75 1.88 c0 0.92 -0.35 1.6433 -1.05 2.17 s-1.6367 0.79666 -2.81 0.81 c-0.88 0 -1.6033 -0.13666 -2.17 -0.41 s-1.0567 -0.69668 -1.47 -1.27 l1.36 -1.12 c0.72 0.74666 1.4867 1.12 2.3 1.12 c0.53334 0 0.98668 -0.10666 1.36 -0.32 s0.56 -0.50668 0.56 -0.88002 c0 -0.65334 -0.6 -1.1067 -1.8 -1.36 c-1.3333 -0.26666 -2.23 -0.62332 -2.69 -1.07 s-0.69 -1.0233 -0.69 -1.73 c0 -0.88 0.34 -1.5833 1.02 -2.11 s1.54 -0.79666 2.58 -0.81 z M15.200000000000001 10.28 c1.0667 0 1.9033 0.32 2.51 0.96 s0.91666 1.5 0.93 2.58 l0 6.18 l-1.8 0 l0 -5.66 c0 -0.73334 -0.19 -1.3133 -0.57 -1.74 s-0.91 -0.64 -1.59 -0.64 c-0.84 0 -1.49 0.28 -1.95 0.84 s-0.69 1.3067 -0.69 2.24 l0 4.96 l-1.8 0 l0 -9.48 l1.8 0 l0 1.46 l0.04 0 c0.25334 -0.53334 0.66334 -0.95 1.23 -1.25 s1.1967 -0.45 1.89 -0.45 z M22.4 5.800000000000001 c0.36 0 0.67002 0.13002 0.93002 0.39002 s0.39 0.57 0.39 0.93 c0 0.37334 -0.13334 0.68668 -0.4 0.94002 s-0.57332 0.38 -0.91998 0.38 c-0.37334 0 -0.68668 -0.12666 -0.94002 -0.38 s-0.38 -0.56668 -0.38 -0.94002 s0.13334 -0.68668 0.4 -0.94002 s0.57332 -0.38 0.91998 -0.38 z M23.3 10.52 l0 9.48 l-1.8 0 l0 -9.48 l1.8 0 z M31.32 10.28 c1.4 0 2.5434 0.45998 3.43 1.38 s1.3433 2.12 1.37 3.6 c0 1.48 -0.45334 2.6766 -1.36 3.59 s-2.06 1.3767 -3.46 1.39 c-0.69334 0 -1.34 -0.14666 -1.94 -0.44 s-1.0533 -0.68 -1.36 -1.16 l-0.04 0 l0 7 l-1.8 0 l0 -15.12 l1.8 0 l0 1.36 l0.04 0 c0.36 -0.50666 0.83334 -0.9 1.42 -1.18 s1.22 -0.42 1.9 -0.42 z M27.96 15.26 c0 0.98666 0.28998 1.7833 0.86998 2.39 s1.33 0.91 2.25 0.91 c0.96 0 1.7167 -0.30334 2.27 -0.91 s0.83668 -1.4033 0.85002 -2.39 c0 -0.98666 -0.28334 -1.78 -0.85 -2.38 s-1.33 -0.90666 -2.29 -0.92 c-0.94666 0 -1.7 0.31 -2.26 0.93 s-0.84 1.41 -0.84 2.37 z M43.540000000000006 10.28 c1.4 0 2.5434 0.45998 3.43 1.38 s1.3433 2.12 1.37 3.6 c0 1.48 -0.45334 2.6766 -1.36 3.59 s-2.06 1.3767 -3.46 1.39 c-0.69334 0 -1.34 -0.14666 -1.94 -0.44 s-1.0533 -0.68 -1.36 -1.16 l-0.04 0 l0 7 l-1.8 0 l0 -15.12 l1.8 0 l0 1.36 l0.04 0 c0.36 -0.50666 0.83334 -0.9 1.42 -1.18 s1.22 -0.42 1.9 -0.42 z M40.18000000000001 15.26 c0 0.98666 0.28998 1.7833 0.86998 2.39 s1.33 0.91 2.25 0.91 c0.96 0 1.7167 -0.30334 2.27 -0.91 s0.83668 -1.4033 0.85002 -2.39 c0 -0.98666 -0.28334 -1.78 -0.85 -2.38 s-1.33 -0.90666 -2.29 -0.92 c-0.94666 0 -1.7 0.31 -2.26 0.93 s-0.84 1.41 -0.84 2.37 z M51.64 5.800000000000001 c0.36 0 0.67002 0.13002 0.93002 0.39002 s0.39 0.57 0.39 0.93 c0 0.37334 -0.13334 0.68668 -0.4 0.94002 s-0.57332 0.38 -0.91998 0.38 c-0.37334 0 -0.68668 -0.12666 -0.94002 -0.38 s-0.38 -0.56668 -0.38 -0.94002 s0.13334 -0.68668 0.4 -0.94002 s0.57332 -0.38 0.91998 -0.38 z M52.54 10.52 l0 9.48 l-1.8 0 l0 -9.48 l1.8 0 z M59.339999999999996 4.640000000000001 c0.53334 0 0.97998 0.04666 1.34 0.14 l-0.2 1.6 c-0.29334 -0.12 -0.63334 -0.18 -1.02 -0.18 c-0.54666 0 -0.94 0.15 -1.18 0.45 s-0.36 0.83 -0.36 1.59 l0 2.28 l2.14 0 l0 1.56 l-2.16 0 l0 7.92 l-1.8 0 l0 -7.92 l-2.04 0 l0 -1.56 l2.04 0 l0 -2.2 c0 -1.2667 0.25666 -2.1966 0.77 -2.79 s1.3367 -0.89 2.47 -0.89 z M63 10.52 l2.82 7.4 l0.04 0 l2.68 -7.4 l1.94 0 l-4.48 11.48 c-0.41334 1.1067 -0.86668 1.85 -1.36 2.23 s-1.1267 0.57 -1.9 0.57 c-0.65334 0 -1.1867 -0.08666 -1.6 -0.26 l0.22 -1.62 c0.37334 0.13334 0.73334 0.2 1.08 0.2 c0.56 0 0.96334 -0.13666 1.21 -0.41 s0.46332 -0.66334 0.64998 -1.17 l0.56 -1.48 l-3.94 -9.54 l2.08 0 z"></path></g>
</svg>

